<svg width="16" height="16" viewBox="0 0 16 16" fill="none" xmlns="http://www.w3.org/2000/svg">
<g clip-path="url(#clip0_1_86)">
<path d="M7.99334 1.33334C4.31334 1.33334 1.33334 4.32 1.33334 8C1.33334 11.68 4.31334 14.6667 7.99334 14.6667C11.68 14.6667 14.6667 11.68 14.6667 8C14.6667 4.32 11.68 1.33334 7.99334 1.33334ZM8 13.3333C5.05334 13.3333 2.66667 10.9467 2.66667 8C2.66667 5.05334 5.05334 2.66667 8 2.66667C10.9467 2.66667 13.3333 5.05334 13.3333 8C13.3333 10.9467 10.9467 13.3333 8 13.3333ZM8.33334 4.66667H7.33334V8.66667L10.8333 10.7667L11.3333 9.94667L8.33334 8.16667V4.66667Z" fill="#888888"/>
</g>
<defs>
<clipPath id="clip0_1_86">
<rect width="16" height="16" fill="white"/>
</clipPath>
</defs>
</svg>
